PathFileType	4	(X/Y/Z)	..\data\2014001\dynamic\2014001_C4_05.trc
DataRate	CameraRate	NumFrames	NumMarkers	Units	OrigDataRate	OrigDataStartFrame	OrigNumFrames
100.000000	100.000000	4	52	mm	100.000000	78	156
Frame#	Time	L_IAS			L_IPS			R_IPS			R_IAS			L_FTC			L_FLE			L_FME			L_FAX			L_TTC			L_FAL			L_TAM			L_FCC			L_FM1			L_FM2			L_FM5			R_FTC			R_FLE			R_FME			R_FAX			R_TTC			R_FAL			R_TAM			R_FCC			R_FM1			R_FM2			R_FM5			CV7			TV10			SXS			SJN			L_SIA			L_SRS			L_SAA			L_SAE			L_HLE			L_HME			L_UOA			L_RSP			L_UHE			L_HM2			L_HM5			R_SIA			R_SRS			R_SAA			R_SAE			R_HLE			R_HME			R_UOA			R_RSP			R_UHE			R_HM2			R_HM5			
		X1	Y1	Z1	X2	Y2	Z2	X3	Y3	Z3	X4	Y4	Z4	X5	Y5	Z5	X6	Y6	Z6	X7	Y7	Z7	X8	Y8	Z8	X9	Y9	Z9	X10	Y10	Z10	X11	Y11	Z11	X12	Y12	Z12	X13	Y13	Z13	X14	Y14	Z14	X15	Y15	Z15	X16	Y16	Z16	X17	Y17	Z17	X18	Y18	Z18	X19	Y19	Z19	X20	Y20	Z20	X21	Y21	Z21	X22	Y22	Z22	X23	Y23	Z23	X24	Y24	Z24	X25	Y25	Z25	X26	Y26	Z26	X27	Y27	Z27	X28	Y28	Z28	X29	Y29	Z29	X30	Y30	Z30	X31	Y31	Z31	X32	Y32	Z32	X33	Y33	Z33	X34	Y34	Z34	X35	Y35	Z35	X36	Y36	Z36	X37	Y37	Z37	X38	Y38	Z38	X39	Y39	Z39	X40	Y40	Z40	X41	Y41	Z41	X42	Y42	Z42	X43	Y43	Z43	X44	Y44	Z44	X45	Y45	Z45	X46	Y46	Z46	X47	Y47	Z47	X48	Y48	Z48	X49	Y49	Z49	X50	Y50	Z50	X51	Y51	Z51	X52	Y52	Z52	

79	0.78	-76.2402038574219	879.4073486328127	89.95207214355469	-255.6361694335938	917.0616455078127	155.8081207275391	-260.148895263672	910.9260253906252	245.2794036865235	-88.33774566650396	880.2054443359377	328.8868408203126	-142.9711456298828	792.6697998046877	31.38035011291503	-113.0165176391602	435.8862915039064	77.97574615478516	-101.5851135253907	431.7001037597657	194.2675476074219	-136.7215118408203	373.7228393554688	75.30069732666016	-80.87273406982425	351.0861511230469	127.0668411254883	-202.7701568603516	63.46790313720705	123.0819931030273	-182.4087066650391	71.75843811035158	211.412582397461	-249.7347869873048	25.6967887878418	166.7337646484375	-69.48284149169926	23.05819892883301	193.2200317382813	-59.80133438110354	35.57765197753907	131.8486938476563	-114.3962020874024	24.18798637390137	86.15700531005859	-182.3347320556641	781.8886718750002	380.6315612792969	-93.0750350952149	444.4188842773439	382.8822326660157	-46.81640243530278	422.0347595214845	269.2480468750001	-133.2671813964845	400.4250488281251	381.5409545898438	-70.5743026733399	357.0905761718751	348.7987670898438	-331.3595275878907	167.6395416259766	310.4034729003906	-273.8501892089845	149.1006622314453	241.5181884765625	-375.1539611816407	154.692855834961	241.6117401123047	-235.898422241211	41.03524398803712	284.9966125488281	-246.1571502685548	58.05727005004884	339.8463134765625	-303.9474487304689	78.31820678710939	361.8713684082031	-238.2877349853516	1381.305541992188	207.2643127441407	-290.7910156250001	1144.192504882813	201.7121276855469	-59.00218200683598	1159.737426757813	204.1820831298829	-107.8866806030274	1320.362182617188	204.5491333007813	-292.9792785644532	1184.609252929688	106.7687530517578	-278.1465454101563	1316.212768554688	117.2199172973633	-201.8711700439454	1316.156127929688	9.382460594177223	-162.6542053222657	1328.07958984375	25.58833694458006	-167.7064514160157	1043.41845703125	-55.80463409423832	-195.3242797851563	1007.692321777344	18.81734657287596	-197.5747070312501	1006.180786132813	-31.56735229492191	-43.19716262817384	827.2431640625002	-10.75736045837403	-84.33988189697266	818.6398925781252	-79.103630065918	4.652291297912601	753.7490234375001	-19.58488273620606	-74.96223449707031	742.5175781250001	-85.02260589599612	-300.1663513183595	1189.031005859375	316.263916015625	-278.896453857422	1313.7587890625	293.7091979980469	-202.181365966797	1312.127563476563	397.6663208007814	-153.3153533935548	1318.091918945313	386.577850341797	-190.6241302490235	1016.121215820313	460.9118957519532	-220.7854461669923	999.3421630859377	385.7249755859376	-222.825408935547	991.0081787109377	432.2695312500001	-76.38535308837898	817.675231933594	419.4432983398439	-122.8512649536134	808.5843505859377	486.3084411621095	-30.654037475586	738.6956787109376	431.1862182617189	-115.4669647216798	727.8709106445314	486.9249267578126	
80	0.79	-63.96976089477542	879.606384277344	89.06031036376953	-242.7185363769532	918.2536621093752	155.5730438232422	-246.9593658447266	912.4255981445315	245.2379150390625	-75.04143524169928	882.5197753906252	327.9900512695313	-131.2742767333985	792.9021606445315	31.31676864624022	-110.0302276611329	435.8059692382814	77.85498809814453	-98.73777770996099	431.2906494140626	194.0916900634766	-134.5800476074219	373.8243103027344	75.22126770019531	-78.56960296630862	350.9721069335938	127.1226272583008	-202.4654693603516	63.79405593872072	123.1399688720703	-182.0363769531251	72.17044830322267	211.4590454101563	-249.5776519775391	26.36323928833009	166.8696136474609	-69.25634765625004	22.94715118408203	193.159408569336	-59.57387542724612	35.42087936401368	131.8182067871094	-114.3401718139649	24.11466789245606	86.16928863525391	-167.9607849121095	784.1665039062502	380.9906005859376	-71.73386383056646	447.8829040527345	382.1763916015626	-24.9730377197266	427.038787841797	268.7465820312501	-110.4659423828126	401.6164855957032	380.3988952636719	-45.52151489257817	361.4239196777344	348.5510559082032	-295.1194458007814	156.2689208984375	310.7503356933594	-236.282684326172	141.2163238525391	242.2743835449219	-338.2193603515626	140.0115966796875	242.0260925292969	-190.4183654785157	37.22539901733399	287.0389709472657	-201.9651947021485	54.45499420166017	341.5574340820313	-261.4348754882814	70.18117523193361	363.2660827636719	-224.6773071289063	1382.656005859375	207.204086303711	-277.4704589843751	1145.710205078125	200.8921356201172	-45.64499282836918	1161.060913085938	204.3004913330079	-94.17761230468754	1321.785278320313	204.8919677734376	-278.9333190917969	1186.656127929688	105.4073715209961	-264.1363830566407	1317.875732421875	116.5851440429688	-187.008529663086	1318.380493164063	9.218710899353006	-147.9532012939453	1330.287353515625	25.92022705078124	-149.3688507080078	1046.004028320313	-56.43240737915043	-177.2977752685547	1009.627136230469	17.56785774230955	-178.9085235595703	1007.883972167969	-33.00067520141604	-18.90598297119141	833.6145629882815	-8.571371078491214	-59.58994674682618	823.0590820312502	-77.31721496582034	30.87815284729005	761.4277343750001	-16.50069427490234	-47.64089202880859	747.1882324218751	-82.77325439453126	-287.3606872558595	1190.47021484375	315.1381530761719	-265.699676513672	1315.003295898438	293.1846313476562	-189.6198730468751	1313.335327148438	397.5146484375001	-140.5827941894532	1319.160034179688	386.9000854492189	-181.1395416259766	1017.230224609375	459.3703613281251	-210.7339172363282	1001.089416503906	383.8874206542969	-213.4031829833986	992.9290161132815	430.4231872558595	-70.52117919921882	816.5180664062502	419.6224670410157	-118.382179260254	808.5125732421877	485.9671630859376	-27.24234962463385	736.0331420898439	431.842742919922	-112.9843215942384	727.6300048828126	486.6654663085939	
81	0.8	-51.71596145629886	879.5625000000002	88.23992156982423	-229.8758697509766	919.1064453125002	155.507568359375	-233.8560333251954	913.5645141601565	245.3191070556641	-61.79201126098638	884.4655761718752	327.1812744140626	-119.6488571166992	792.986755371094	31.25247001647949	-107.0542068481446	435.7833862304689	77.74993133544922	-95.90697479248051	430.8875732421876	193.9034729003907	-132.4664611816407	374.0115661621094	75.15171813964844	-76.28810882568362	350.9306945800782	127.169174194336	-202.1331329345704	64.2042922973633	123.2033615112305	-181.6568450927735	72.65274810791017	211.5058746337891	-249.3867340087891	27.08499717712403	167.0217590332031	-69.02727508544926	22.86793899536133	193.1248474121094	-59.32864379882815	35.30070877075196	131.8089904785157	-114.2619934082032	24.09795761108399	86.20005798339844	-153.6131744384766	786.0459594726565	381.4282226562501	-50.90093231201178	450.9249267578126	381.3740234375001	-3.915648460388217	431.6925354003907	268.1138305664063	-88.01061248779303	402.3085937500001	379.2698364257813	-20.93247413635259	365.5328979492188	348.1402893066407	-258.0755615234376	144.7811584472657	311.2935180664062	-198.0516510009766	133.3852844238282	243.1572570800782	-300.1408691406251	125.2781448364258	242.6739959716797	-144.6259765625001	33.91621398925782	289.2344360351563	-157.5640563964844	51.19592666625978	343.4122619628907	-218.3467559814454	62.3732147216797	364.8187866210938	-211.017547607422	1383.682250976563	207.2132263183594	-264.1541442871094	1146.929809570313	200.1407775878907	-32.26377105712894	1162.026000976563	204.4259796142579	-80.41622924804692	1322.850463867188	205.2581939697266	-264.8611450195313	1188.344970703125	104.1676712036133	-250.1081085205079	1319.2001953125	116.0227508544922	-172.2164154052735	1320.276245117188	9.122238159179668	-133.309555053711	1332.180419921875	26.28890228271483	-131.1097564697266	1048.357543945313	-57.0347709655762	-159.3150634765625	1011.269348144531	16.35656547546385	-160.3120269775391	1009.32763671875	-34.41383361816409	5.23237991333008	839.9541625976565	-6.333975315093995	-35.04244232177734	827.3916015625002	-75.41189575195314	56.74618148803712	769.0275878906252	-13.26090145111084	-20.62013053894042	751.8135986328126	-80.2541961669922	-274.5421447753907	1191.586791992188	314.0520935058594	-252.419174194336	1315.921630859375	292.7202758789062	-176.9497985839845	1314.15478515625	397.402801513672	-127.7685012817384	1319.799682617188	387.2409667968751	-171.6731109619141	1017.993591308594	457.9803771972657	-200.6601562500001	1002.469665527344	382.2317810058594	-203.9281616210939	994.4747314453127	428.7318725585939	-64.49974060058601	815.2249755859377	420.0075683593751	-113.8476181030274	808.2395019531252	485.751678466797	-23.65778350830084	733.3385009765626	432.7271728515626	-110.3436660766602	727.2470092773439	486.459197998047	
82	0.8100000000000001	-39.45214843750002	879.2683105468752	87.52242279052736	-217.0948486328126	919.6141357421877	155.6096954345703	-220.8476562500001	914.3357543945315	245.5084381103516	-48.60234069824224	885.9907226562502	326.4891967773438	-108.1082839965821	792.9395141601565	31.17383956909179	-104.1053466796875	435.8191528320314	77.64493560791016	-93.06079101562504	430.4822998046876	193.6766815185547	-130.3926696777344	374.2855529785157	75.08329010009766	-74.05368804931643	350.9331359863282	127.1655044555664	-201.789535522461	64.69419097900392	123.2798004150391	-181.2693328857422	73.20059204101564	211.5553741455078	-249.1701965332032	27.85681152343751	167.2046051025391	-68.80910491943364	22.82224845886231	193.1026916503907	-59.08796691894534	35.21489334106446	131.8102722167969	-114.1798477172852	24.12765693664551	86.24654388427734	-139.3251953125001	787.4707031250002	381.9196777343751	-30.57400321960455	453.4580078125001	380.4903564453126	16.35041427612302	435.8903808593751	267.3537902832032	-65.86363220214849	402.4729309082032	378.1826171875001	3.164428949356037	369.3591308593751	347.5623168945313	-220.2032775878907	133.468017578125	312.0461730957032	-159.2012329101563	125.8445892333985	244.1642761230469	-260.8989868164064	110.8042526245117	243.5702209472657	-98.62509918212898	31.32662773132325	291.5707092285157	-113.0150833129884	48.50116348266603	345.4135437011719	-174.7122650146485	55.17306518554689	366.5369873046876	-197.3004760742188	1384.364868164063	207.2843322753907	-250.8355712890626	1147.82568359375	199.4584655761719	-18.86156082153323	1162.595825195313	204.5682220458985	-66.59942626953129	1323.524169921875	205.6498565673829	-250.7539215087891	1189.639282226563	103.0509948730469	-236.0486755371094	1320.167724609375	115.529167175293	-157.4762878417969	1321.805053710938	9.086676597595197	-118.7061157226563	1333.717651367188	26.68868255615234	-112.9227600097657	1050.421752929688	-57.61828994750979	-141.3805541992188	1012.573974609375	15.17990970611571	-141.783920288086	1010.466247558594	-35.80347442626955	29.13265800476075	846.1755981445315	-4.042624950408933	-10.70077800750732	831.5865478515627	-73.3965301513672	82.22877502441408	776.4840087890627	-9.874655723571768	6.092750549316418	756.3395996093751	-77.48706817626955	-261.719207763672	1192.357055664063	313.0074462890625	-239.0560913085938	1316.496215820313	292.3125305175781	-164.1687316894532	1314.551391601563	397.3312988281251	-114.8669128417969	1319.978881835938	387.5959472656251	-162.1595306396485	1018.379516601563	456.7610778808595	-190.5379333496095	1003.4443359375	380.7896423339844	-194.3661041259767	995.6134033203127	427.2310791015626	-58.31690597534186	813.7309570312502	420.5830383300782	-109.1793441772462	807.721130371094	485.6706542968751	-19.85757064819342	730.5686035156251	433.8135070800782	-107.4770050048829	726.6694335937501	486.3221130371095	
